<?xml version="1.0"?>
<svg xmlns="http://www.w3.org/2000/svg" xmlns:xlink="http://www.w3.org/1999/xlink" version="1.1" id="Layer_1" x="0px" y="0px" viewBox="0 0 511.992 511.992" style="enable-background:new 0 0 511.992 511.992;" xml:space="preserve" width="512px" height="512px"><g><g>
	<g>
		<g>
			<path d="M352.18,109.768c-5.703-1.492-11.531,1.906-13.031,7.602c-1.5,5.703,1.907,11.531,7.594,13.031     c5.688,1.5,11.531-1.906,13.031-7.602C361.274,117.104,357.868,111.268,352.18,109.768z" data-original="#000000" class="active-path" data-old_color="#000000" fill="#323232"/>
			<path d="M373.68,146.627c-5.703-1.5-11.531,1.898-13.031,7.601c-1.5,5.695,1.907,11.531,7.594,13.031     c5.688,1.492,11.531-1.906,13.031-7.609C382.774,153.955,379.368,148.119,373.68,146.627z" data-original="#000000" class="active-path" data-old_color="#000000" fill="#323232"/>
			<path d="M395.181,183.478c-5.703-1.5-11.531,1.906-13.031,7.602s1.906,11.531,7.594,13.031s11.531-1.906,13.031-7.602     C404.274,190.807,400.868,184.978,395.181,183.478z" data-original="#000000" class="active-path" data-old_color="#000000" fill="#323232"/>
			<path d="M400.898,102.426c-2.969-5.086-9.5-6.805-14.594-3.836c-5.094,2.969-6.812,9.5-3.844,14.586l54.312,93.091     c2,3.398,5.562,5.289,9.234,5.289c1.828,0,3.672-0.469,5.359-1.453c5.094-2.969,6.812-9.5,3.844-14.585L400.898,102.426z" data-original="#000000" class="active-path" data-old_color="#000000" fill="#323232"/>
			<path d="M496.257,244.375c15.125-8.937,20.234-28.492,11.359-43.679l-86-147.412c-5.703-9.797-16.311-15.875-27.654-15.875     c-5.641,0-11.203,1.508-16.094,4.359L38.233,239.914h-6.234c-17.647,0-31.999,14.359-31.999,32v170.668     c0,17.641,14.352,32,31.999,32h61.054c0,0,0,0,0.008,0h386.931c17.656,0,32-14.359,32-32V271.914     C511.991,260.203,505.663,249.953,496.257,244.375z M490.647,442.583c0,5.875-4.781,10.656-10.656,10.656H31.998     c-5.882,0-10.663-4.781-10.663-10.656V271.914c0-5.883,4.781-10.664,10.663-10.664h447.993c5.875,0,10.656,4.781,10.656,10.664     V442.583z M485.366,226.033l-23.797,13.882h-42.344c2.406-1.367,4.297-3.664,5.047-6.554c1.5-5.695-1.906-11.531-7.594-13.031     c-5.701-1.5-11.529,1.906-13.029,7.602c-1.266,4.789,0.938,9.656,5.062,11.984H292.245l48.779-28.46     c5.078-2.969,6.797-9.5,3.828-14.585c-2.969-5.094-9.5-6.812-14.578-3.844l-80.373,46.89h-42.336l111.958-65.311     c5.078-2.969,6.797-9.5,3.828-14.586c-2.969-5.094-9.5-6.812-14.578-3.844l-128.99,75.257c-3.171,1.844-5.03,5.078-5.265,8.484     h-93.95l308.05-179.718c1.656-0.969,3.453-1.46,5.344-1.46c3.797,0,7.344,2.031,9.25,5.296l85.998,147.412     C492.163,216.525,490.444,223.072,485.366,226.033z" data-original="#000000" class="active-path" data-old_color="#000000" fill="#323232"/>
			<path d="M408.462,285.711c-4.188,4.156-4.188,10.904,0,15.076c4.154,4.172,10.904,4.172,15.061,0     c4.188-4.172,4.188-10.92,0-15.076C419.366,281.539,412.616,281.539,408.462,285.711z" data-original="#000000" class="active-path" data-old_color="#000000" fill="#323232"/>
			<path d="M408.462,328.365c-4.188,4.172-4.188,10.922,0,15.094c4.154,4.156,10.904,4.156,15.061,0     c4.188-4.172,4.188-10.922,0-15.094C419.366,324.21,412.616,324.21,408.462,328.365z" data-original="#000000" class="active-path" data-old_color="#000000" fill="#323232"/>
			<path d="M408.462,371.037c-4.188,4.172-4.188,10.922,0,15.078c4.154,4.172,10.904,4.172,15.061,0     c4.188-4.156,4.188-10.906,0-15.078C419.366,366.865,412.616,366.865,408.462,371.037z" data-original="#000000" class="active-path" data-old_color="#000000" fill="#323232"/>
			<path d="M408.462,413.708c-4.188,4.156-4.188,10.906,0,15.078c4.154,4.172,10.904,4.172,15.061,0     c4.188-4.172,4.188-10.922,0-15.078C419.366,409.537,412.616,409.537,408.462,413.708z" data-original="#000000" class="active-path" data-old_color="#000000" fill="#323232"/>
			<path d="M151.918,300.021l-26.132,26.141l-69.827-13.953c-5.773-1.156-11.398,2.578-12.555,8.359     c-1.148,5.766,2.594,11.391,8.367,12.547l55.882,11.188l-28.038,28.031H53.866c-5.891,0-10.664,4.781-10.664,10.656     c0,5.906,4.773,10.672,10.664,10.672h19.507v19.514c0,5.875,4.773,10.656,10.664,10.656s10.664-4.781,10.664-10.656v-25.764     l28.039-28.031l11.18,55.873c1.008,5.078,5.469,8.578,10.445,8.578c0.695,0,1.398-0.062,2.102-0.203     c5.78-1.156,9.522-6.781,8.366-12.545l-13.96-69.844l26.132-26.125c4.164-4.156,4.164-10.922,0-15.094     C162.84,295.865,156.082,295.865,151.918,300.021z" data-original="#000000" class="active-path" data-old_color="#000000" fill="#323232"/>
			<path d="M458.647,293.242c-5.875,0-10.656,4.779-10.656,10.67v107.781c0,5.889,4.781,10.67,10.656,10.67     c5.906,0,10.688-4.781,10.688-10.67V303.912C469.335,298.021,464.554,293.242,458.647,293.242z" data-original="#000000" class="active-path" data-old_color="#000000" fill="#323232"/>
			<path d="M362.649,303.912H213.331c-5.891,0-10.672,4.766-10.672,10.672c0,5.875,4.781,10.656,10.672,10.656h149.318     c5.906,0,10.688-4.781,10.688-10.656C373.337,308.679,368.556,303.912,362.649,303.912z" data-original="#000000" class="active-path" data-old_color="#000000" fill="#323232"/>
			<path d="M362.649,346.585H213.331c-5.891,0-10.672,4.781-10.672,10.656c0,5.906,4.781,10.672,10.672,10.672h149.318     c5.906,0,10.688-4.766,10.688-10.672C373.337,351.365,368.556,346.585,362.649,346.585z" data-original="#000000" class="active-path" data-old_color="#000000" fill="#323232"/>
			<path d="M298.649,389.24h-85.318c-5.891,0-10.672,4.781-10.672,10.672s4.781,10.672,10.672,10.672h85.318     c5.906,0,10.688-4.781,10.688-10.672S304.556,389.24,298.649,389.24z" data-original="#000000" class="active-path" data-old_color="#000000" fill="#323232"/>
		</g>
	</g>
</g></g> </svg>
