<svg class="lds-spinner" width="200px"  height="200px"  xmlns="http://www.w3.org/2000/svg" xmlns:xlink="http://www.w3.org/1999/xlink" viewBox="0 0 100 100" preserveAspectRatio="xMidYMid" style="background: none;"><g transform="rotate(0 50 50)">
  <rect x="47" y="13.5" rx="9.4" ry="2.7" width="6" height="15" fill="#fc4309">
    <animate attributeName="opacity" values="1;0" keyTimes="0;1" dur="1.3s" begin="-1.2133333333333334s" repeatCount="indefinite"></animate>
  </rect>
</g><g transform="rotate(24 50 50)">
  <rect x="47" y="13.5" rx="9.4" ry="2.7" width="6" height="15" fill="#fc4309">
    <animate attributeName="opacity" values="1;0" keyTimes="0;1" dur="1.3s" begin="-1.1266666666666667s" repeatCount="indefinite"></animate>
  </rect>
</g><g transform="rotate(48 50 50)">
  <rect x="47" y="13.5" rx="9.4" ry="2.7" width="6" height="15" fill="#fc4309">
    <animate attributeName="opacity" values="1;0" keyTimes="0;1" dur="1.3s" begin="-1.04s" repeatCount="indefinite"></animate>
  </rect>
</g><g transform="rotate(72 50 50)">
  <rect x="47" y="13.5" rx="9.4" ry="2.7" width="6" height="15" fill="#fc4309">
    <animate attributeName="opacity" values="1;0" keyTimes="0;1" dur="1.3s" begin="-0.9533333333333334s" repeatCount="indefinite"></animate>
  </rect>
</g><g transform="rotate(96 50 50)">
  <rect x="47" y="13.5" rx="9.4" ry="2.7" width="6" height="15" fill="#fc4309">
    <animate attributeName="opacity" values="1;0" keyTimes="0;1" dur="1.3s" begin="-0.8666666666666667s" repeatCount="indefinite"></animate>
  </rect>
</g><g transform="rotate(120 50 50)">
  <rect x="47" y="13.5" rx="9.4" ry="2.7" width="6" height="15" fill="#fc4309">
    <animate attributeName="opacity" values="1;0" keyTimes="0;1" dur="1.3s" begin="-0.78s" repeatCount="indefinite"></animate>
  </rect>
</g><g transform="rotate(144 50 50)">
  <rect x="47" y="13.5" rx="9.4" ry="2.7" width="6" height="15" fill="#fc4309">
    <animate attributeName="opacity" values="1;0" keyTimes="0;1" dur="1.3s" begin="-0.6933333333333334s" repeatCount="indefinite"></animate>
  </rect>
</g><g transform="rotate(168 50 50)">
  <rect x="47" y="13.5" rx="9.4" ry="2.7" width="6" height="15" fill="#fc4309">
    <animate attributeName="opacity" values="1;0" keyTimes="0;1" dur="1.3s" begin="-0.6066666666666667s" repeatCount="indefinite"></animate>
  </rect>
</g><g transform="rotate(192 50 50)">
  <rect x="47" y="13.5" rx="9.4" ry="2.7" width="6" height="15" fill="#fc4309">
    <animate attributeName="opacity" values="1;0" keyTimes="0;1" dur="1.3s" begin="-0.52s" repeatCount="indefinite"></animate>
  </rect>
</g><g transform="rotate(216 50 50)">
  <rect x="47" y="13.5" rx="9.4" ry="2.7" width="6" height="15" fill="#fc4309">
    <animate attributeName="opacity" values="1;0" keyTimes="0;1" dur="1.3s" begin="-0.43333333333333335s" repeatCount="indefinite"></animate>
  </rect>
</g><g transform="rotate(240 50 50)">
  <rect x="47" y="13.5" rx="9.4" ry="2.7" width="6" height="15" fill="#fc4309">
    <animate attributeName="opacity" values="1;0" keyTimes="0;1" dur="1.3s" begin="-0.3466666666666667s" repeatCount="indefinite"></animate>
  </rect>
</g><g transform="rotate(264 50 50)">
  <rect x="47" y="13.5" rx="9.4" ry="2.7" width="6" height="15" fill="#fc4309">
    <animate attributeName="opacity" values="1;0" keyTimes="0;1" dur="1.3s" begin="-0.26s" repeatCount="indefinite"></animate>
  </rect>
</g><g transform="rotate(288 50 50)">
  <rect x="47" y="13.5" rx="9.4" ry="2.7" width="6" height="15" fill="#fc4309">
    <animate attributeName="opacity" values="1;0" keyTimes="0;1" dur="1.3s" begin="-0.17333333333333334s" repeatCount="indefinite"></animate>
  </rect>
</g><g transform="rotate(312 50 50)">
  <rect x="47" y="13.5" rx="9.4" ry="2.7" width="6" height="15" fill="#fc4309">
    <animate attributeName="opacity" values="1;0" keyTimes="0;1" dur="1.3s" begin="-0.08666666666666667s" repeatCount="indefinite"></animate>
  </rect>
</g><g transform="rotate(336 50 50)">
  <rect x="47" y="13.5" rx="9.4" ry="2.7" width="6" height="15" fill="#fc4309">
    <animate attributeName="opacity" values="1;0" keyTimes="0;1" dur="1.3s" begin="0s" repeatCount="indefinite"></animate>
  </rect>
</g></svg>